<?xml version="1.0" encoding="utf-8"?>
<!-- Generator: Adobe Illustrator 21.1.0, SVG Export Plug-In . SVG Version: 6.00 Build 0)  -->
<svg version="1.1" id="Layer_1" xmlns="http://www.w3.org/2000/svg" xmlns:xlink="http://www.w3.org/1999/xlink" x="0px" y="0px"
	 viewBox="0 0 205.1999969 108" style="enable-background:new 0 0 205.1999969 108;" xml:space="preserve">
<style type="text/css">
	.st0{fill:#E87722;}
	.st1{fill:#861F41;}
</style>
<g>
	<path class="st0" d="M130.6111603,77.7898636v-2.8068771h12.27005v2.8068771h-4.6703949v13.1016998h-2.9178314V77.7898636
		H130.6111603z"/>
	<path class="st0" d="M155.529007,90.8915634h-10.2063599v-15.897522h10.2063599v2.7843857h-7.299942v3.7056427h5.9241486v2.7843857
		h-5.9241486v3.8387222h7.299942V90.8915634z"/>
	<path class="st0" d="M160.3567963,82.9372711c0,0.7172623,0.1387939,1.3921967,0.4156342,2.0244217
		c0.2776031,0.6326065,0.6543427,1.183609,1.1317596,1.6530075c0.4774017,0.4697876,1.0318451,0.841568,1.6640625,1.114975
		c0.6322327,0.2737885,1.3071594,0.4106827,2.0247955,0.4106827c0.5544434,0,1.0776062-0.0831299,1.5695038-0.2497635
		c0.4919128-0.1662598,0.9487305-0.3939056,1.3704681-0.6821823c0.1624298-0.1033325,0.3378448-0.1849365,0.5269775-0.2440414
		c0.1883698-0.0591049,0.3858948-0.0888443,0.5933228-0.0888443c0.3325195,0,0.615448,0.0537643,0.8488159,0.1609116
		c0.232605,0.1071548,0.4491882,0.2570114,0.6490021,0.4491959l0.6764679,0.6768417
		c-0.4141235,0.4438477-0.8617859,0.8430939-1.3422394,1.1980972c-0.4812317,0.355011-0.9853363,0.6585388-1.5146027,0.9098282
		c-0.5285034,0.2512817-1.0760803,0.4438477-1.6419525,0.5769272s-1.1439514,0.1994324-1.7357635,0.1994324
		c-1.124115,0-2.1803741-0.2123947-3.1672211-0.6379471c-0.9876099-0.4251633-1.8509216-1.0040054-2.5906677-1.7361374
		c-0.7397614-0.732132-1.3224182-1.5900955-1.7472076-2.5735168c-0.4255524-0.9837952-0.6383209-2.0377579-0.6383209-3.1618881
		c0-0.7470016,0.0960846-1.4661636,0.289032-2.1578751c0.1921844-0.69133,0.4659729-1.3368988,0.8206024-1.9359512
		c0.3553925-0.5990524,0.7801819-1.1462402,1.2758942-1.641571c0.4957123-0.4957123,1.0447998-0.9189758,1.6472931-1.2705536
		c0.603241-0.3511963,1.2514801-0.6226883,1.9470062-0.8152542c0.6955261-0.1921844,1.416214-0.2882767,2.1635895-0.2882767
		c0.5918121,0,1.1698914,0.0663452,1.7357635,0.1994247s1.1134491,0.3256454,1.6419525,0.5769348
		c0.5292664,0.2516708,1.033371,0.5548172,1.5146027,0.9098282c0.4804535,0.3550034,0.9281158,0.7542419,1.3422394,1.1980972
		l-0.6764679,0.6768417c-0.1929474,0.1921844-0.4125824,0.3454742-0.6604309,0.4602509
		c-0.2478638,0.1147766-0.5269928,0.1719742-0.8373871,0.1719742c-0.4072418,0-0.7801666-0.1182098-1.1203003-0.355011
		c-0.4293671-0.2886581-0.8899994-0.5140152-1.381134-0.6768341c-0.4918976-0.1624451-1.0120239-0.2440491-1.5588379-0.2440491
		c-0.7176361,0-1.3925629,0.1368942-2.0247955,0.4106827c-0.6322174,0.273407-1.1866608,0.6451874-1.6640625,1.1145935
		c-0.477417,0.46978-0.8541565,1.0192642-1.1317596,1.6476746
		C160.4955902,81.5469894,160.3567963,82.2200165,160.3567963,82.9372711z"/>
	<path class="st0" d="M188.6630402,90.8915634h-2.9170837v-6.5899353h-7.8101501v6.5899353h-2.9071655v-15.897522h2.9071655
		v6.5232086h7.8101501v-6.5232086h2.9170837V90.8915634z"/>
	<g>
		<polygon class="st0" points="196.0105286,90.8918991 195.6120758,90.8918991 195.6120758,88.6698303 195.6000366,88.6698303 
			194.7032318,90.8918991 194.4600067,90.8918991 193.5892334,88.6698303 193.5764465,88.6698303 193.5764465,90.8918991 
			193.178009,90.8918991 193.178009,88.2714462 193.8312531,88.2714462 194.5849457,90.1203003 195.3630676,88.2714462 
			196.0105286,88.2714462 		"/>
		<polygon class="st0" points="192.6986847,88.6698303 191.8399506,88.6698303 191.8399506,90.8918991 191.4411774,90.8918991 
			191.4411774,88.6698303 190.5824432,88.6698303 190.5824432,88.2714462 192.6986847,88.2714462 		"/>
	</g>
	<path class="st0" d="M24.5085754,86.0656052c0,0,1.4329929-3.2907715,2.1468201-4.9254837
		c0.7138271-1.6347046,1.432991-3.2762833,2.1574955-4.9258652c0.1632042-0.377121,0.416399-0.6745453,0.7603474-0.8930435
		c0.3439503-0.2181168,0.7229786-0.3271713,1.1370907-0.3271713h1.8082104l-6.9338856,15.897522h-2.6402435l-6.9338837-15.897522
		h1.7975311c0.19981,0,0.3973331,0.029747,0.5933304,0.0888443c0.1959972,0.0591049,0.3790302,0.1441422,0.549099,0.2551041
		c0.1700668,0.1109619,0.3218307,0.2402344,0.4552937,0.3881836c0.1326981,0.1479492,0.2364159,0.3107758,0.3103924,0.4880829
		l4.2936382,9.8402939l0.251627,0.576683L24.5085754,86.0656052z"/>
	<path class="st0" d="M37.8770714,90.8915634h-2.9170837v-15.897522h2.9170837V90.8915634z"/>
	<path class="st0" d="M70.550293,82.3824539v6.6673431c-0.3996201,0.3996201-0.8320389,0.7286987-1.2980118,0.9876175
		c-0.4659653,0.2589111-0.9540558,0.4640579-1.4642563,0.615448c-0.5109634,0.1517639-1.0417633,0.2554779-1.5923843,0.3107681
		c-0.550621,0.0556717-1.1073456,0.0831299-1.6694107,0.0831299c-1.1241226,0-2.1780853-0.2123947-3.1618843-0.6379471
		c-0.9838028-0.4251633-1.8455811-1.0040054-2.5845757-1.7361374c-0.7397537-0.732132-1.3224068-1.5900955-1.7479591-2.5735168
		c-0.4247894-0.9837952-0.6375656-2.0377579-0.6375656-3.1618881c0-0.7470016,0.0960922-1.4661636,0.2882767-2.1578751
		c0.1921844-0.69133,0.4659729-1.3368988,0.8213615-1.9359512c0.3546257-0.5990524,0.7801743-1.1462402,1.2758865-1.641571
		c0.4949532-0.4957123,1.0440483-0.9189758,1.6472931-1.2705536c0.6024857-0.3511963,1.2499619-0.6226883,1.9409103-0.8152542
		c0.6917114-0.1921844,1.4108734-0.2882767,2.1582565-0.2882767c0.5918045,0,1.1721725,0.0663452,1.7418594,0.1994247
		c0.5689316,0.1330795,1.1165009,0.3256454,1.6419601,0.5769348c0.5246887,0.2516708,1.0272675,0.5548172,1.5084915,0.9098282
		c0.4804611,0.3550034,0.9281235,0.7542419,1.3422394,1.1980972l-0.6657791,0.6768417
		c-0.2066803,0.2143021-0.4308929,0.3733063-0.6711197,0.4770279c-0.2402344,0.1033401-0.5155487,0.1551971-0.8259354,0.1551971
		c-0.4148788,0-0.7916183-0.1182098-1.131752-0.355011c-0.4217377-0.2886581-0.8785553-0.5140152-1.3704605-0.6768341
		c-0.4918976-0.1624451-1.0150681-0.2440491-1.5695038-0.2440491c-0.7100105,0-1.383419,0.1368942-2.0194588,0.4106827
		c-0.6360359,0.273407-1.1904716,0.6451874-1.6640701,1.1145935c-0.4728355,0.46978-0.8488121,1.0192642-1.1256485,1.6476746
		c-0.2775993,0.6287918-0.4164009,1.3018188-0.4164009,2.0190735c0,0.732132,0.1441383,1.4143143,0.4331779,2.0469208
		c0.2882767,0.632225,0.6764565,1.1832275,1.1645432,1.6530075c0.4880867,0.4697876,1.0554886,0.8373795,1.7029648,1.1035385
		c0.6467171,0.2665405,1.3254623,0.3996201,2.0354729,0.3996201c0.3477631-0.0072479,0.6993408-0.0369873,1.0539627-0.0888519
		c0.3035355-0.0442276,0.628418-0.1143951,0.9761734-0.2108688c0.3477631-0.0960922,0.6657867-0.2329788,0.9540634-0.4102936
		v-2.2410049c-0.3103943-0.0072479-0.615448-0.01297-0.9151688-0.016777
		c-0.2989502-0.0034332-0.5658722-0.0610123-0.7984772-0.1719742c-0.2333679-0.1109695-0.4202118-0.2974319-0.5605392-0.5601578
		c-0.1403198-0.2623444-0.2104874-0.6524353-0.2104874-1.1702652v-0.8877106H70.550293z"/>
	<path class="st0" d="M78.164444,90.8915634h-2.9178391v-15.897522h2.9178391V90.8915634z"/>
	<path class="st0" d="M85.872406,78.9983749v11.8931885h-2.9064026v-15.897522h2.5624542
		c0.3553848,0,0.667305,0.051857,0.9372787,0.1551971c0.2699738,0.1037216,0.4827499,0.2627258,0.6383286,0.4770279
		c1.1096344,1.5756073,7.0665817,9.9971161,7.0665817,9.9971161V74.9940414h2.9064026v15.897522H94.381897L85.872406,78.9983749z"/>
	<path class="st0" d="M104.7956848,90.8915634h-2.9170837v-15.897522h2.9170837V90.8915634z"/>
	<path class="st0" d="M116.811264,74.9940414h-2.62957l-6.9445572,15.897522h1.8082047
		c0.1998138,0,0.3973389-0.0293579,0.5933304-0.0888443c0.1959991-0.0591049,0.3790359-0.1422348,0.5498657-0.249382
		c0.1700668-0.1071548,0.3210678-0.2348938,0.4545288-0.382843s0.2364197-0.3107758,0.3103943-0.4880905l0.9319382-2.152153
		h0.0024796l1.6804657-3.8703766h0.0147781l1.9133606-4.4410172l2.3245087,5.3935471h-1.3201218
		c-0.9880981,0-1.8819809,0.5864029-2.2754974,1.4927673l-0.618721,1.4250793h5.5009079l0.9433823,2.152153
		c0.1700668,0.3771286,0.4247894,0.673027,0.7649231,0.8873291c0.3401337,0.2146835,0.7176437,0.3218307,1.131752,0.3218307
		h1.8082047L116.811264,74.9940414z"/>
	<path class="st0" d="M45.5844955,90.8895874H42.678627V74.9949951h5.9672852c0.7685966,0,1.4655151,0.1441116,2.0907631,0.4327164
		c0.6244812,0.2882233,1.1589928,0.67099,1.6027641,1.147934c0.4437714,0.4769363,0.7868958,1.018692,1.0308952,1.6248779
		c0.2439957,0.6065598,0.3659973,1.2310486,0.3659973,1.8745956c0,0.4658813-0.0625267,0.9207077-0.1875763,1.3640976
		c-0.1265717,0.443779-0.3110962,0.8616257-0.5550957,1.2535477s-0.5436592,0.7525787-0.8982201,1.0812149
		c-0.35532,0.3293991-0.7617302,0.6084747-1.2199898,0.8376007c0.7762184,1.057579,1.5486259,2.105629,2.3179855,3.1445312
		c0.7685928,1.0389023,1.5448151,2.083519,2.3286591,3.1334763H53.248333c-0.1547852,0-0.3362579-0.0331726-0.5428963-0.0998917
		c-0.2073975-0.0663376-0.4239464-0.171936-0.6488838-0.3160477c-0.2256966-0.1441116-0.4582596-0.330925-0.6992073-0.5600586
		c-0.2401848-0.229126-0.4750328-0.5104904-0.7045441-0.8429337l-2.8944321-3.9043579h-2.1738739V90.8895874z
		 M48.7343636,82.2489929c0.2805977,0,0.548996-0.0590973,0.803669-0.1772842
		c0.2561989-0.118187,0.4773216-0.2775497,0.66642-0.4769363c0.1883354-0.1997757,0.3377876-0.4308167,0.448349-0.6934891
		c0.1113243-0.2622986,0.1669846-0.5341339,0.1669846-0.8151093c0-0.2886047-0.0556602-0.5638657-0.1669846-0.8265457
		c-0.1105614-0.2622986-0.2600136-0.4933319-0.448349-0.6931076c-0.1890984-0.1997757-0.4102211-0.3583755-0.66642-0.476944
		c-0.254673-0.118187-0.5230713-0.1772766-0.803669-0.1772766h-3.149868v4.3366928H48.7343636z"/>
</g>
<g>
	<path class="st1" d="M108.9217606,16.7028694c-6.4834671,0-12.4455872,3.5530872-15.530983,9.2556343l-3.7990417,7.0216713
		l-0.4416275,0.8163338l-0.4278717,0.7908287v0.0000229L77.2469788,55.7963638L58.5148201,20.7845516h8.3312721
		l6.7088623,12.4732723l3.5202408,6.5449181l3.6342316-6.4823608l7.0281219-12.5358295h6.0751266
		c1.4671631-1.6343174,3.1826401-3.0082226,5.071106-4.0816822H85.3466797l-8.1973495,14.6213875l-7.8643417-14.6213875h-17.582859
		l25.5247231,47.7077065l14.2083054-26.260437l2.3555908-4.3536301l0.4416275-0.8163338l2.732254-5.0496387
		c0.1488647-0.2751846,0.3065033-0.5438671,0.4723129-0.8057995c1.823494-2.8813667,4.6434326-4.9463234,7.8683243-5.8427544
		c0.8794632-0.2444668,1.7892151-0.4020653,2.7169037-0.4655418c0.3092957-0.0211754,0.6205902-0.031889,0.9334717-0.031889
		h37.195282l-3.7556,6.9996471h-17.2113876l-1.1516876,2.1639099l-15.9249802,29.9212456h-8.4446716l13.966568-25.938839
		l3.2398376-6.0168457h-16.7599945c-0.9565964,1.5129776-2.3272934,4.0816822-2.3272934,4.0816822h12.2538757L92.8293839,63.9510345
		h17.7291412l17.0766678-32.0851517h17.2018127l8.1357727-15.1630116H108.9217606z"/>
</g>
</svg>
