<?xml version="1.0" encoding="iso-8859-1"?>
<!-- Generator: Adobe Illustrator 19.0.0, SVG Export Plug-In . SVG Version: 6.00 Build 0)  -->
<svg version="1.1" id="Layer_1" xmlns="http://www.w3.org/2000/svg" xmlns:xlink="http://www.w3.org/1999/xlink" x="0px" y="0px"
	 viewBox="0 0 512 512" style="enable-background:new 0 0 512 512;" xml:space="preserve">
<g>
	<g>
		<path d="M490.667,0H21.333C9.552,0,0,9.551,0,21.333v469.333C0,502.449,9.552,512,21.333,512h469.333
			c11.782,0,21.333-9.551,21.333-21.333V21.333C512,9.551,502.45,0,490.667,0z M469.334,469.333L469.334,469.333H42.667V42.667
			h426.667V469.333z"/>
	</g>
</g>
<g>
	<g>
		<path d="M384,85.333H128c-11.782,0-21.333,9.551-21.333,21.333v42.667c0,11.782,9.551,21.334,21.333,21.334
			s21.333-9.551,21.333-21.333V128h85.333v256h-21.333C201.552,384,192,393.551,192,405.333c0,11.782,9.551,21.333,21.333,21.333
			h85.333c11.782,0,21.333-9.551,21.333-21.333c0-11.782-9.551-21.333-21.333-21.333h-21.333V128h85.333v21.333
			c0,11.782,9.551,21.333,21.333,21.333c11.782,0,21.333-9.551,21.333-21.333v-42.667C405.333,94.884,395.782,85.333,384,85.333z"/>
	</g>
</g>
<g>
	<g>
		<path d="M392.836,298.667l27.582-27.582c8.331-8.331,8.331-21.839,0-30.17c-8.331-8.331-21.838-8.331-30.17,0l-27.582,27.582
			l-27.582-27.582c-8.331-8.331-21.839-8.331-30.17,0c-8.331,8.331-8.331,21.839,0,30.17l27.582,27.582l-27.582,27.582
			c-8.331,8.331-8.331,21.839,0,30.17s21.839,8.331,30.17,0l27.582-27.582l27.582,27.582c8.331,8.331,21.839,8.331,30.17,0
			c8.331-8.331,8.331-21.839,0-30.17L392.836,298.667z"/>
	</g>
</g>
<g>
</g>
<g>
</g>
<g>
</g>
<g>
</g>
<g>
</g>
<g>
</g>
<g>
</g>
<g>
</g>
<g>
</g>
<g>
</g>
<g>
</g>
<g>
</g>
<g>
</g>
<g>
</g>
<g>
</g>
</svg>
